<?xml version="1.0" standalone="no"?>
<!DOCTYPE svg PUBLIC "-//W3C//DTD SVG 20010904//EN"
 "http://www.w3.org/TR/2001/REC-SVG-20010904/DTD/svg10.dtd">
<svg version="1.0" xmlns="http://www.w3.org/2000/svg"
 width="421.000000pt" height="421.000000pt" viewBox="0 0 421.000000 421.000000"
 preserveAspectRatio="xMidYMid meet">

<g transform="translate(0.000000,421.000000) scale(0.100000,-0.100000)"
fill="#000000" stroke="none">
<path d="M1740 3609 c-9 -13 -34 -24 -64 -30 -28 -5 -59 -18 -71 -29 -12 -11
-29 -20 -39 -20 -46 0 -118 -69 -132 -126 -4 -16 -21 -45 -39 -65 -22 -25 -35
-51 -39 -83 -5 -29 -15 -54 -28 -64 -35 -30 -50 -69 -42 -117 3 -25 1 -66 -6
-96 -10 -41 -10 -62 0 -104 10 -44 10 -63 -4 -123 -21 -94 -36 -327 -33 -532
1 -116 -2 -171 -10 -185 l-12 -20 -1 20 c0 32 -57 142 -79 154 -46 25 -42 -2
9 -54 34 -35 43 -53 56 -116 20 -94 33 -276 20 -289 -6 -6 -19 -11 -31 -11
-11 -1 -2 -5 19 -8 l40 -6 21 -85 c45 -179 97 -296 181 -410 64 -88 214 -234
300 -293 191 -131 452 -149 655 -47 79 41 222 144 298 215 117 111 187 221
257 405 l32 85 34 -3 c24 -2 42 3 59 18 l24 22 -25 -16 c-31 -20 -59 -20 -66
-1 -8 19 9 94 53 230 34 107 58 149 94 160 9 3 24 16 33 29 13 21 13 25 1 30
-20 7 -71 -38 -106 -93 l-29 -46 0 71 c0 39 7 93 15 120 24 75 67 505 61 596
-6 80 -35 158 -79 205 -16 18 -20 34 -18 78 1 37 -4 69 -18 100 -22 49 -69
115 -82 115 -4 0 -19 11 -32 24 -14 13 -49 37 -78 52 -30 15 -81 46 -114 69
-74 52 -127 79 -75 38 70 -56 211 -198 240 -243 38 -60 42 -90 13 -105 -13 -7
-31 -19 -41 -28 -34 -31 -110 -15 -130 27 -6 11 -12 41 -15 67 -10 103 -125
268 -244 351 -24 16 -41 33 -38 39 3 5 -1 6 -10 3 -12 -5 -4 -16 32 -48 26
-22 72 -75 102 -116 60 -80 160 -264 150 -274 -20 -21 -161 -36 -345 -37 -232
-1 -257 6 -310 83 -16 23 -44 63 -62 87 -42 56 -212 394 -212 421 0 30 16 25
91 -27 63 -42 71 -45 95 -34 22 10 31 9 50 -4 13 -8 24 -20 24 -25 0 -6 5 -10
10 -10 18 0 10 23 -17 52 -23 24 -25 30 -13 38 21 14 -50 13 -86 0 -21 -8 -37
-6 -81 15 -66 30 -93 31 -113 4z m35 -64 c14 -13 25 -33 25 -43 0 -43 61 -196
123 -310 37 -66 67 -123 67 -126 0 -21 -58 3 -132 53 -48 33 -120 77 -160 98
-94 49 -194 142 -210 194 -10 35 -9 43 9 67 36 49 66 42 135 -32 73 -81 96
-87 33 -10 -44 55 -64 98 -50 112 3 4 32 10 63 13 31 3 61 7 65 8 4 0 19 -10
32 -24z m-270 -349 c46 -41 107 -87 137 -103 l53 -28 -33 -3 c-77 -8 -200 50
-246 115 -26 37 -28 46 -18 68 6 14 14 25 17 25 3 0 44 -33 90 -74z m1435 -14
c36 -18 70 -72 70 -110 0 -57 -28 -37 -85 60 -28 49 -35 76 -16 65 3 -1 17 -8
31 -15z m-1505 -82 c59 -38 104 -60 125 -60 11 0 20 -5 20 -11 0 -16 -70 -4
-122 22 -24 12 -53 36 -65 55 -24 37 -24 37 42 -6z m514 -100 c136 -26 368
-42 521 -35 241 10 312 -7 418 -100 56 -50 96 -116 111 -187 17 -76 33 -281
26 -333 -9 -77 -14 -82 -72 -60 -26 11 -52 20 -58 21 -5 1 -29 9 -52 18 -64
23 -198 39 -272 33 -81 -7 -164 -37 -202 -73 l-28 -27 -58 21 c-83 30 -139 35
-203 18 l-54 -14 -53 48 c-78 71 -139 91 -298 97 -100 4 -144 2 -190 -11 -33
-8 -83 -18 -110 -21 -27 -4 -53 -9 -58 -12 -12 -7 -12 -11 46 222 26 99 57
202 71 229 43 86 107 138 211 173 44 15 211 11 304 -7z m-469 -60 c-20 -13
-33 -13 -25 0 3 6 14 10 23 10 15 0 15 -2 2 -10z m-60 -91 c-7 -12 -23 -58
-36 -103 -21 -72 -23 -75 -19 -32 5 46 53 171 62 162 3 -2 -1 -14 -7 -27z
m330 -470 c51 -11 74 -17 78 -19 1 -2 6 -3 10 -4 28 -4 103 -53 123 -79 65
-87 5 -306 -106 -391 -58 -45 -115 -59 -213 -54 -96 5 -130 18 -192 74 -64 58
-101 187 -80 280 7 27 13 56 15 66 6 26 32 72 51 90 47 41 208 60 314 37z
m797 -45 c-3 -3 -12 -4 -19 -1 -8 3 -5 6 6 6 11 1 17 -2 13 -5z m248 -41 c86
-21 119 -45 144 -102 21 -51 29 -152 16 -216 -11 -54 -42 -109 -83 -149 -23
-22 -38 -44 -35 -49 4 -6 1 -7 -6 -3 -13 9 -73 -12 -67 -23 2 -3 -40 -3 -93 0
-75 5 -109 13 -147 32 -109 55 -194 203 -163 281 52 130 185 202 308 166 75
-21 153 -105 168 -180 l7 -35 11 28 c11 27 13 28 29 12 9 -9 23 -30 32 -46 8
-16 19 -27 24 -24 14 9 -4 39 -64 110 -120 139 -177 172 -290 163 -77 -7 -117
-26 -183 -91 -54 -52 -61 -50 -43 14 32 114 226 164 435 112z m-1474 -86 c-13
-95 -6 -155 29 -232 44 -99 131 -163 250 -185 83 -15 151 -6 228 32 123 59
215 217 212 366 -1 48 1 53 27 63 46 18 155 15 199 -7 l38 -19 1 -120 c1 -100
5 -128 23 -168 11 -26 17 -45 12 -42 -13 8 -12 -9 2 -40 7 -16 17 -24 27 -20
10 3 29 -8 49 -29 68 -72 209 -111 335 -92 63 10 161 76 198 135 l29 45 0 -65
c0 -199 -75 -395 -230 -600 -87 -117 -152 -180 -280 -276 -118 -88 -167 -105
-315 -111 -215 -8 -323 35 -480 192 -147 146 -276 348 -335 524 -47 140 -67
338 -51 512 6 74 11 160 11 190 0 49 1 53 16 39 13 -14 14 -27 5 -92z"/>
<path d="M1629 2320 c-36 -11 -76 -37 -136 -89 -28 -26 -65 -56 -82 -69 -33
-25 -38 -49 -20 -84 10 -19 13 -18 36 23 31 55 32 56 43 39 6 -10 12 -5 23 22
17 41 74 101 120 125 49 26 161 23 214 -4 52 -28 98 -84 122 -147 l18 -49 6
43 c5 41 4 44 -57 105 -44 43 -78 67 -111 79 -51 17 -132 20 -176 6z"/>
<path d="M1673 2255 c-61 -26 -99 -120 -73 -180 6 -13 7 -4 3 26 -7 60 15 103
67 129 65 33 105 27 156 -24 31 -30 44 -38 44 -27 0 10 -12 29 -27 43 -50 48
-110 59 -170 33z"/>
<path d="M1709 2201 c7 -13 6 -24 -4 -37 -11 -16 -17 -17 -33 -7 -25 15 -32 8
-32 -32 0 -49 32 -83 86 -91 41 -6 48 -4 75 22 61 59 19 164 -66 164 -32 0
-35 -2 -26 -19z"/>
<path d="M1873 2115 c0 -22 2 -30 4 -17 2 12 2 30 0 40 -3 9 -5 -1 -4 -23z"/>
<path d="M2497 2168 c-29 -25 -39 -42 -42 -73 -5 -39 -5 -39 5 -9 13 42 70 91
115 100 47 9 121 -34 141 -82 8 -19 17 -34 19 -34 11 0 -27 77 -50 100 -20 19
-37 25 -87 28 -60 4 -65 2 -101 -30z"/>
<path d="M2565 2150 c-3 -5 -4 -14 -1 -19 14 -21 -7 -42 -38 -39 -23 2 -32 -1
-34 -15 -6 -28 6 -65 28 -87 27 -27 110 -28 133 -2 30 33 38 70 23 107 -20 46
-94 83 -111 55z"/>
<path d="M2447 2043 c-5 -8 9 -53 16 -53 2 0 2 14 -1 30 -4 31 -8 36 -15 23z"/>
<path d="M1983 1684 c12 -74 75 -109 183 -102 74 5 110 30 120 84 9 50 -1 63
-19 23 -28 -68 -144 -88 -225 -39 -17 11 -34 31 -38 45 -10 40 -27 30 -21 -11z"/>
<path d="M1705 1530 c12 -39 55 -122 82 -157 50 -65 224 -174 278 -173 16 1
14 4 -10 16 l-30 14 30 -7 c17 -4 50 -7 75 -7 l45 1 -40 -14 c-40 -13 -40 -13
32 -9 123 6 260 83 331 185 43 63 52 91 30 91 -7 0 -116 2 -242 6 -242 6 -543
41 -573 66 -14 11 -15 10 -8 -12z m515 -101 c79 -9 131 -28 84 -30 -10 0 -32
-3 -49 -5 -38 -7 -253 13 -312 27 -24 6 -46 16 -50 22 -7 11 183 3 327 -14z"/>
<path d="M1880 1205 c15 -18 110 -79 114 -74 2 2 -25 23 -61 46 -35 23 -59 36
-53 28z"/>
<path d="M2335 1172 c-33 -20 -89 -45 -125 -54 -64 -18 -64 -18 -15 -13 55 7
134 41 180 79 41 34 31 31 -40 -12z"/>
<path d="M2084 3569 c21 -11 70 -45 109 -75 77 -59 106 -70 86 -31 -6 12 -23
35 -38 50 -22 24 -23 29 -11 37 10 7 -6 10 -50 10 -37 0 -76 7 -90 15 -14 8
-29 14 -35 14 -5 0 7 -9 29 -20z"/>
</g>
</svg>
